<?xml version="1.0" encoding="utf-8"?>
<!-- Generator: Adobe Illustrator 17.0.0, SVG Export Plug-In . SVG Version: 6.00 Build 0)  -->
<!DOCTYPE svg PUBLIC "-//W3C//DTD SVG 1.1//EN" "http://www.w3.org/Graphics/SVG/1.1/DTD/svg11.dtd" [
	<!ENTITY st0 "fill:none;stroke:#333333;stroke-miterlimit:10;">
	<!ENTITY st1 "fill:none;stroke:#FF835C;stroke-miterlimit:10;">
	<!ENTITY st2 "fill:#FF835C;">
	<!ENTITY st3 "fill:none;">
]>
<svg version="1.1" id="图层_1" xmlns="http://www.w3.org/2000/svg" xmlns:xlink="http://www.w3.org/1999/xlink" x="0px" y="0px"
	 width="37px" height="37px" viewBox="0 0 37 37" style="enable-background:new 0 0 37 37;" xml:space="preserve">
<g>
	<g>
		<path style="&st0;" d="M30.118,19.877C30.878,19.67,31.5,18.825,31.5,18s-0.622-1.67-1.382-1.877
			c-0.76-0.207-1.406-0.478-1.435-0.601s0.333-0.9,0.887-1.458s0.668-1.599,0.256-2.314s-1.374-1.135-2.137-0.934
			s-1.458,0.292-1.545,0.202s-0.16-0.943,0.041-1.706s-0.219-1.725-0.934-2.137s-1.756-0.297-2.314,0.256S21.822,8.409,21.7,8.376
			s-0.616-0.734-0.823-1.494S19.825,5.5,19,5.5s-1.67,0.622-1.877,1.382s-0.478,1.406-0.601,1.435s-0.9-0.333-1.458-0.887
			s-1.599-0.668-2.314-0.256s-1.135,1.374-0.934,2.137s0.292,1.458,0.202,1.545s-0.943,0.16-1.706-0.041s-1.725,0.219-2.137,0.934
			c-0.412,0.714-0.297,1.756,0.256,2.314s0.979,1.114,0.946,1.236s-0.734,0.616-1.494,0.823C7.122,16.33,6.5,17.175,6.5,18
			s0.622,1.67,1.382,1.877s1.406,0.478,1.435,0.601s-0.333,0.9-0.887,1.458s-0.668,1.599-0.256,2.314
			c0.413,0.714,1.374,1.135,2.137,0.934s1.458-0.292,1.545-0.202s0.16,0.943-0.041,1.706s0.219,1.725,0.934,2.137
			s1.756,0.297,2.314-0.256s1.114-0.979,1.236-0.946s0.616,0.734,0.823,1.494S18.175,30.5,19,30.5s1.67-0.622,1.877-1.382
			s0.478-1.406,0.601-1.435s0.9,0.333,1.458,0.887s1.599,0.668,2.314,0.256s1.135-1.374,0.934-2.137s-0.292-1.458-0.202-1.545
			s0.943-0.16,1.706,0.041s1.725-0.219,2.137-0.934s0.297-1.756-0.256-2.314s-0.979-1.114-0.946-1.236S29.357,20.084,30.118,19.877z
			"/>
	</g>
	<path style="&st1;" d="M19,14c2.209,0,4,1.791,4,4s-1.791,4-4,4s-4-1.791-4-4"/>
</g>
</svg>
