<?xml version="1.0" encoding="utf-8"?>
<!-- Generator: Adobe Illustrator 17.0.0, SVG Export Plug-In . SVG Version: 6.00 Build 0)  -->
<!DOCTYPE svg PUBLIC "-//W3C//DTD SVG 1.1//EN" "http://www.w3.org/Graphics/SVG/1.1/DTD/svg11.dtd" [
	<!ENTITY st0 "fill:none;stroke:#333333;stroke-miterlimit:10;">
	<!ENTITY st1 "fill:none;stroke:#FF835C;stroke-miterlimit:10;">
	<!ENTITY st2 "fill:#FF835C;">
	<!ENTITY st3 "fill:none;">
]>
<svg version="1.1" id="图层_1" xmlns="http://www.w3.org/2000/svg" xmlns:xlink="http://www.w3.org/1999/xlink" x="0px" y="0px"
	 width="37px" height="37px" viewBox="0 0 37 37" style="enable-background:new 0 0 37 37;" xml:space="preserve">
<g>
	<path style="&st0;" d="M13.5,14.5h-3c-1.657,0-3-1.343-3-3v-3c0-1.657,1.343-3,3-3h3c1.657,0,3,1.343,3,3v3"/>
	<path style="&st0;" d="M31.5,26.5c0,1.657-1.343,3-3,3h-3c-1.657,0-3-1.343-3-3v-3c0-1.657,1.343-3,3-3h3c1.657,0,3,1.343,3,3V26.5
		z"/>
	<line style="&st0;" x1="7" y1="17.5" x2="17" y2="17.5"/>
	<path style="&st0;" d="M31.5,11.5c0,1.657-1.343,3-3,3h-3c-1.657,0-3-1.343-3-3v-3c0-1.657,1.343-3,3-3h3c1.657,0,3,1.343,3,3V11.5
		z"/>
	<line style="&st0;" x1="22" y1="17.5" x2="32" y2="17.5"/>
	<line style="&st0;" x1="19.5" y1="5" x2="19.5" y2="30"/>
	<line style="&st0;" x1="7.5" y1="20" x2="7.5" y2="30"/>
	<line style="&st0;" x1="10.5" y1="20" x2="10.5" y2="30"/>
	<line style="&st0;" x1="13.5" y1="20" x2="13.5" y2="30"/>
	<line style="&st0;" x1="16.5" y1="20" x2="16.5" y2="30"/>
	<path style="&st2;" d="M29,25c0,1.105-0.895,2-2,2l0,0c-1.105,0-2-0.895-2-2l0,0c0-1.105,0.895-2,2-2l0,0
		C28.105,23,29,23.895,29,25L29,25z"/>
</g>
<rect id="_x3C_切片_x3E__2_" style="&st3;" width="37" height="37"/>
</svg>
