<?xml version="1.0" encoding="utf-8"?>
<!-- Generator: Adobe Illustrator 17.0.0, SVG Export Plug-In . SVG Version: 6.00 Build 0)  -->
<!DOCTYPE svg PUBLIC "-//W3C//DTD SVG 1.1//EN" "http://www.w3.org/Graphics/SVG/1.1/DTD/svg11.dtd" [
	<!ENTITY st0 "fill:#EF7F5C;">
	<!ENTITY st1 "opacity:0.3;fill:#EF7F5C;">
]>
<svg version="1.1" id="图层_1" xmlns="http://www.w3.org/2000/svg" xmlns:xlink="http://www.w3.org/1999/xlink" x="0px" y="0px"
	 width="1024px" height="1088px" viewBox="0 0 1024 1088" style="enable-background:new 0 0 1024 1088;" xml:space="preserve">
<g>
	<g>
		<path style="&st0;" d="M892.518,783.183H759.713c-9.012,0-20.137-5.211-25.91-12.137l-47.598-57.121
			c-6.523-7.808-6.523-20.058,0-27.871l47.598-57.125c5.773-6.922,16.898-12.133,25.91-12.133h132.805
			c10.586,0,19.195,8.61,19.195,19.196v127.992C911.713,774.574,903.104,783.183,892.518,783.183L892.518,783.183z M759.713,629.594
			c-5.137,0-12.789,3.586-16.09,7.539l-47.594,57.121c-2.55,3.047-2.55,8.426,0,11.473l47.594,57.121
			c3.301,3.949,10.953,7.539,16.09,7.539h132.805c3.523,0,6.398-2.875,6.398-6.402V635.992c0-3.524-2.875-6.399-6.398-6.399H759.713
			z M759.713,629.594"/>
		<path style="&st0;" d="M790.123,744.789c-24.699,0-44.797-20.101-44.797-44.796c0-24.7,20.098-44.797,44.797-44.797
			c24.695,0,44.797,20.097,44.797,44.797C834.92,724.688,814.822,744.789,790.123,744.789L790.123,744.789z M790.123,667.992
			c-17.648,0-32,14.347-32,32c0,17.644,14.352,31.996,32,31.996s31.996-14.352,31.996-31.996
			C822.119,682.339,807.771,667.992,790.123,667.992L790.123,667.992z M790.123,667.992"/>
		<path style="&st0;" d="M790.123,719.188c-10.586,0-19.199-8.609-19.199-19.195c0-10.59,8.613-19.204,19.199-19.204
			s19.199,8.614,19.199,19.204C809.322,710.578,800.709,719.188,790.123,719.188L790.123,719.188z M790.123,693.589
			c-3.523,0-6.398,2.875-6.398,6.403c0,3.523,2.875,6.398,6.398,6.398c3.524,0,6.398-2.875,6.398-6.398
			C796.521,696.464,793.647,693.589,790.123,693.589L790.123,693.589z M393.729,373.609c-3.532,0-6.461-2.863-6.461-6.399
			c0-3.539,2.796-6.402,6.336-6.402h0.125c1.699,0,3.324,0.676,4.527,1.875c1.199,1.199,1.871,2.828,1.871,4.527
			C400.127,370.746,397.264,373.609,393.729,373.609L393.729,373.609z M393.729,348.012c-3.532,0-6.461-2.863-6.461-6.398
			c0-3.539,2.796-6.403,6.336-6.403h0.125c1.699,0,3.324,0.672,4.527,1.875c1.199,1.2,1.871,2.828,1.871,4.528
			C400.127,345.148,397.264,348.012,393.729,348.012L393.729,348.012z M393.729,322.413c-3.532,0-6.461-2.863-6.461-6.402
			c0-3.535,2.796-6.398,6.336-6.398h0.125c1.699,0,3.324,0.672,4.527,1.875c1.199,1.199,1.871,2.828,1.871,4.523
			C400.127,319.551,397.264,322.413,393.729,322.413L393.729,322.413z M393.729,296.816c-3.532,0-6.461-2.863-6.461-6.403
			c0-3.535,2.796-6.398,6.336-6.398h0.125c1.699,0,3.324,0.672,4.527,1.871c1.199,1.203,1.871,2.832,1.871,4.527
			C400.127,293.954,397.264,296.816,393.729,296.816L393.729,296.816z M393.729,271.215c-3.532,0-6.461-2.859-6.461-6.398
			s2.796-6.399,6.336-6.399h0.125c1.699-0.004,3.324,0.672,4.527,1.871c1.199,1.204,1.871,2.829,1.871,4.528
			C400.127,268.355,397.264,271.215,393.729,271.215L393.729,271.215z M393.729,245.617c-3.532,0-6.461-2.864-6.461-6.399
			c0-3.539,2.796-6.402,6.336-6.402h0.125c1.699,0,3.324,0.676,4.527,1.875c1.199,1.199,1.871,2.828,1.871,4.527
			C400.127,242.753,397.264,245.617,393.729,245.617L393.729,245.617z M393.729,245.617"/>
		<path style="&st1;" d="M610.932,181.621c-10.586,0-19.2-8.61-19.2-19.196c0-3.539-2.863-6.402-6.398-6.402H342.15
			c-3.539,0-6.402,2.863-6.402,6.402c0,10.586-8.613,19.196-19.195,19.196c-3.539,0-6.403,2.863-6.403,6.402v217.586
			c0,3.535,2.864,6.398,6.403,6.398h294.379c1.699,0,3.328-0.672,4.527-1.871c1.199-1.203,1.875-2.832,1.871-4.527V188.023
			C617.33,184.484,614.471,181.621,610.932,181.621z"/>
		<path style="&st0;" d="M610.932,412.007c-3.535,0-6.399-2.863-6.399-6.398V193.786c-12.523-2.563-22.398-12.438-24.945-24.961
			H347.904c-2.55,12.523-12.433,22.398-24.953,24.961v211.824c0,3.535-2.863,6.398-6.398,6.398c-3.539,0-6.403-2.863-6.403-6.398
			V188.023c0-3.539,2.864-6.402,6.403-6.402c10.582,0,19.195-8.61,19.195-19.196c0-3.539,2.863-6.402,6.402-6.402h243.184
			c3.535,0,6.398,2.863,6.398,6.402c0,10.586,8.614,19.196,19.2,19.196c3.539,0,6.398,2.863,6.398,6.402v217.586
			c0.004,1.695-0.672,3.324-1.871,4.527C614.26,411.335,612.631,412.007,610.932,412.007L610.932,412.007z"/>
		<path style="&st0;" d="M636.533,412.007c-1.699,0-3.328-0.672-4.527-1.875c-1.199-1.199-1.875-2.828-1.871-4.523V143.223H297.354
			v262.387c0,3.535-2.864,6.398-6.399,6.398c-3.539,0-6.402-2.863-6.402-6.398V136.824c0-3.536,2.863-6.399,6.402-6.399h345.578
			c3.535,0,6.399,2.863,6.399,6.399v268.785C642.932,409.145,640.068,412.007,636.533,412.007L636.533,412.007z M636.533,412.007"/>
		<path style="&st0;" d="M534.139,386.41c-3.539,0-6.403-2.864-6.403-6.399V226.418c0-3.535,2.864-6.398,6.403-6.398
			c3.539,0,6.398,2.863,6.398,6.398v153.594C540.537,383.546,537.678,386.41,534.139,386.41L534.139,386.41z M495.74,373.609
			h-63.996c-3.539,0-6.398-2.863-6.398-6.399c0-3.539,2.859-6.402,6.398-6.402h63.996c1.699,0,3.328,0.676,4.528,1.875
			c1.199,1.199,1.875,2.828,1.871,4.527C502.139,370.746,499.279,373.609,495.74,373.609L495.74,373.609z M476.541,335.215h-25.598
			c-14.117,0-25.597-11.488-25.597-25.601c0-14.11,11.48-25.598,25.597-25.598h25.598c14.117,0,25.598,11.488,25.598,25.598
			C502.139,323.726,490.658,335.215,476.541,335.215L476.541,335.215z M450.943,296.816c-7.054,0-12.796,5.734-12.796,12.797
			c0,7.066,5.742,12.8,12.796,12.8h25.598c7.055,0,12.801-5.734,12.801-12.8c0-7.063-5.746-12.797-12.801-12.797H450.943z
			 M476.541,271.215h-25.598c-14.117,0-25.597-11.484-25.597-25.597c0-14.114,11.48-25.598,25.597-25.598h25.598
			c14.117,0,25.598,11.484,25.598,25.598C502.139,259.73,490.658,271.215,476.541,271.215L476.541,271.215z M450.943,232.82
			c-7.054,0-12.796,5.738-12.796,12.801c0,7.062,5.742,12.796,12.796,12.796h25.598c7.055,0,12.801-5.734,12.801-12.796
			c0-7.063-5.746-12.801-12.801-12.801H450.943z M450.943,232.82"/>
		<path style="&st0;" d="M444.545,386.41c-1.699,0-3.328-0.672-4.524-1.875l-12.8-12.801c-1.664-1.606-2.332-3.985-1.746-6.223
			c0.586-2.238,2.332-3.984,4.57-4.57c2.238-0.586,4.617,0.078,6.223,1.742l12.8,12.801c1.829,1.832,2.375,4.582,1.387,6.972
			C449.467,384.848,447.131,386.41,444.545,386.41L444.545,386.41z M495.74,386.41c-3.535,0-6.398-2.864-6.398-6.399V354.41
			c0-3.536,2.863-6.399,6.398-6.399c1.699,0,3.328,0.672,4.528,1.875c1.199,1.199,1.875,2.828,1.871,4.524v25.601
			C502.139,383.546,499.279,386.41,495.74,386.41L495.74,386.41z M732.154,412.007c-0.55,0-1.101-0.074-1.652-0.211
			c-1.641-0.441-3.043-1.515-3.891-2.988c-0.847-1.473-1.078-3.223-0.632-4.863l34.972-130.516
			c-5.59-2.766-10.238-7.113-13.426-12.625c-3.187-5.523-4.625-11.723-4.226-17.949l-78.945-21.149
			c-1.641-0.437-3.043-1.511-3.891-2.984c-0.852-1.473-1.078-3.223-0.633-4.863c0.899-3.403,4.449-5.363,7.824-4.528l84.52,22.649
			c1.652,0.449,3.051,1.512,3.898,2.988c0.852,1.477,1.078,3.227,0.629,4.863c-1.328,4.961-0.652,10.133,1.91,14.571
			c2.563,4.437,6.703,7.601,11.664,8.926c1.645,0.437,3.043,1.511,3.895,2.984c0.848,1.473,1.078,3.223,0.629,4.867l-36.473,136.09
			C737.576,410.062,735.045,412.004,732.154,412.007L732.154,412.007z M732.154,412.007"/>
		<path style="&st0;" d="M758.674,412.007c-0.551,0-1.102-0.074-1.649-0.211c-1.64-0.437-3.039-1.511-3.89-2.98
			c-0.848-1.473-1.074-3.219-0.633-4.86l46.258-172.738L664.357,195.21c-1.644-0.437-3.046-1.511-3.894-2.984
			c-0.848-1.477-1.078-3.227-0.633-4.867c0.899-3.399,4.449-5.363,7.828-4.524l140.59,37.672c1.641,0.438,3.039,1.508,3.891,2.977
			c0.847,1.472,1.074,3.219,0.632,4.859L764.85,407.257C764.1,410.121,761.498,412.007,758.674,412.007L758.674,412.007z
			 M866.916,540c-3.535,0-6.398-2.863-6.398-6.398c0-31.762-25.832-57.598-57.594-57.598c-3.539,0-6.403-2.863-6.403-6.402
			c0-3.535,2.864-6.398,6.403-6.398c38.82,0,70.394,31.585,70.394,70.394c0,1.699-0.671,3.328-1.875,4.527
			C870.244,539.328,868.615,540,866.916,540L866.916,540z M866.916,540"/>
		<path style="&st0;" d="M802.924,949.574H239.756c-3.535,0-6.399-2.864-6.399-6.399c0-3.539,2.864-6.402,6.399-6.402h563.168
			c31.762,0,57.594-25.832,57.594-57.594c0-3.539,2.863-6.398,6.402-6.398c3.535,0,6.398,2.859,6.398,6.398
			C873.318,917.988,841.744,949.574,802.924,949.574L802.924,949.574z M802.924,949.574"/>
		<path style="&st0;" d="M866.916,483.48c-3.535,0-6.398-2.863-6.398-6.402v-20.274c0-31.758-25.832-57.598-57.594-57.598
			c-3.539,0-6.403-2.859-6.403-6.398s2.864-6.402,6.403-6.402c38.82,0,70.394,31.586,70.394,70.398v20.274
			c0,1.695-0.671,3.324-1.875,4.527C870.244,482.805,868.615,483.48,866.916,483.48L866.916,483.48z M866.916,483.48"/>
		<path style="&st0;" d="M239.756,476.003c-24.699,0-44.797-20.101-44.797-44.8c0-3.536,2.863-6.399,6.398-6.399
			c3.54,0,6.403,2.863,6.403,6.399c0,17.652,14.355,32,31.996,32c1.699,0,3.328,0.671,4.527,1.875
			c1.199,1.199,1.875,2.828,1.871,4.523C246.154,473.14,243.295,476.003,239.756,476.003L239.756,476.003z M239.756,476.003"/>
		<path style="&st0;" d="M239.756,949.574c-24.699,0-44.797-20.098-44.797-44.797c0-3.539,2.863-6.399,6.398-6.399
			c3.54,0,6.403,2.86,6.403,6.399c0,17.648,14.355,31.996,31.996,31.996c3.539,0,6.398,2.863,6.398,6.402
			C246.154,946.71,243.295,949.574,239.756,949.574L239.756,949.574z M239.756,949.574"/>
		<path style="&st0;" d="M201.357,437.605c-3.535,0-6.398-2.859-6.398-6.399c0-24.699,20.098-44.796,44.797-44.796
			c1.699,0,3.328,0.671,4.527,1.875c1.199,1.199,1.875,2.828,1.871,4.523c0,3.539-2.859,6.402-6.398,6.402
			c-17.641,0-31.996,14.348-31.996,31.996c0,1.7-0.676,3.329-1.875,4.528C204.686,436.934,203.057,437.609,201.357,437.605
			L201.357,437.605z M201.357,437.605"/>
		<path style="&st0;" d="M802.924,476.003H239.756c-3.535,0-6.399-2.863-6.399-6.402c0-3.535,2.864-6.398,6.399-6.398h563.168
			c1.699,0,3.324,0.671,4.527,1.875c1.199,1.199,1.871,2.828,1.871,4.523c0,1.699-0.672,3.328-1.875,4.527
			C806.248,475.328,804.619,476.003,802.924,476.003L802.924,476.003z M802.924,476.003"/>
		<path style="&st0;" d="M790.123,437.605H252.557c-3.539,0-6.403-2.859-6.403-6.399c0-3.535,2.864-6.402,6.403-6.402h537.566
			c3.535,0,6.398,2.863,6.398,6.402C796.521,434.746,793.658,437.605,790.123,437.605L790.123,437.605z M790.123,437.605"/>
		<path style="&st0;" d="M201.357,911.18c-3.535,0-6.398-2.863-6.398-6.402V431.207c0-3.535,2.863-6.402,6.398-6.402
			c3.54,0,6.403,2.863,6.403,6.402v473.571C207.76,908.317,204.897,911.18,201.357,911.18L201.357,911.18z M201.357,911.18"/>
		<path style="&st0;" d="M802.924,399.206h-12.801c-1.699,0.004-3.328-0.671-4.527-1.871c-1.199-1.203-1.875-2.832-1.871-4.527
			c0-3.539,2.863-6.402,6.398-6.402h12.801c1.695,0,3.324,0.675,4.523,1.875c1.2,1.199,1.875,2.828,1.875,4.527
			C809.322,396.348,806.459,399.206,802.924,399.206L802.924,399.206z M802.924,399.206"/>
		<path style="&st0;" d="M265.357,399.206h-25.601c-3.535,0-6.399-2.859-6.399-6.398s2.864-6.402,6.399-6.402h25.601
			c1.696,0,3.325,0.675,4.524,1.875c1.199,1.199,1.875,2.828,1.875,4.527C271.756,396.348,268.893,399.206,265.357,399.206
			L265.357,399.206z M265.357,399.206"/>
		<path style="&st0;" d="M265.357,514.402h-12.8c-3.539,0-6.403-2.864-6.403-6.403c0-3.535,2.864-6.398,6.403-6.398h12.8
			c1.696,0,3.325,0.672,4.524,1.875c1.199,1.199,1.875,2.828,1.875,4.523C271.756,511.538,268.893,514.402,265.357,514.402
			L265.357,514.402z M765.123,514.402H740.15c-1.699,0.004-3.328-0.672-4.527-1.871c-1.199-1.203-1.875-2.832-1.871-4.532
			c0-3.535,2.848-6.398,6.398-6.398h24.973c3.551,0,6.402,2.863,6.402,6.398C771.525,511.538,768.674,514.402,765.123,514.402
			L765.123,514.402z M715.154,514.402h-24.988c-1.695,0-3.324-0.672-4.523-1.875c-1.204-1.199-1.875-2.828-1.875-4.528
			c0-3.535,2.863-6.398,6.398-6.398h24.988c3.535,0,6.399,2.863,6.399,6.398C721.553,511.538,718.689,514.402,715.154,514.402
			L715.154,514.402z M665.182,514.402h-25c-3.524,0-6.399-2.864-6.399-6.403c0-3.535,2.875-6.398,6.399-6.398h25
			c3.523,0,6.398,2.863,6.398,6.398C671.58,511.538,668.705,514.402,665.182,514.402L665.182,514.402z M615.197,514.402h-24.988
			c-3.535,0-6.398-2.864-6.398-6.403c0-3.535,2.863-6.398,6.398-6.398h24.988c3.535,0,6.399,2.863,6.399,6.398
			C621.596,511.538,618.732,514.402,615.197,514.402L615.197,514.402z M565.217,514.402h-24.985c-3.539,0-6.398-2.864-6.398-6.403
			c0-3.535,2.859-6.398,6.398-6.398h24.985c1.699,0,3.328,0.672,4.527,1.875c1.199,1.199,1.871,2.828,1.867,4.523
			C571.611,511.538,568.764,514.402,565.217,514.402L565.217,514.402z M515.24,514.402h-24.988c-3.535,0-6.398-2.864-6.398-6.403
			c0-3.535,2.863-6.398,6.398-6.398h24.988c3.535,0,6.399,2.863,6.399,6.398C521.639,511.538,518.775,514.402,515.24,514.402
			L515.24,514.402z M465.26,514.402h-24.985c-3.539,0-6.398-2.864-6.398-6.403c0-3.535,2.859-6.398,6.398-6.398h24.985
			c3.539,0,6.402,2.863,6.402,6.398C471.662,511.538,468.799,514.402,465.26,514.402L465.26,514.402z M415.283,514.402h-24.984
			c-3.539,0-6.402-2.864-6.402-6.403c0-3.535,2.863-6.398,6.402-6.398h24.984c3.539,0,6.403,2.863,6.403,6.398
			C421.686,511.538,418.822,514.402,415.283,514.402L415.283,514.402z M365.303,514.402h-24.985c-3.535,0-6.398-2.864-6.398-6.403
			c0-3.535,2.863-6.398,6.398-6.398h24.985c1.699,0,3.328,0.672,4.527,1.875c1.199,1.199,1.875,2.828,1.871,4.523
			C371.701,511.538,368.842,514.402,365.303,514.402L365.303,514.402z M315.326,514.402h-24.984c-3.539,0-6.403-2.864-6.403-6.403
			c0-3.535,2.864-6.398,6.403-6.398h24.984c1.699,0,3.328,0.672,4.528,1.875c1.199,1.199,1.875,2.828,1.871,4.523
			C321.725,511.538,318.865,514.402,315.326,514.402L315.326,514.402z M802.924,514.402h-12.801c-1.699,0-3.328-0.672-4.527-1.875
			c-1.199-1.199-1.875-2.828-1.871-4.528c0-3.535,2.863-6.398,6.398-6.398h12.801c1.695,0,3.324,0.672,4.523,1.875
			c1.2,1.199,1.875,2.828,1.875,4.523C809.322,511.538,806.459,514.402,802.924,514.402L802.924,514.402z M802.924,514.402"/>
		<path style="&st0;" d="M265.357,911.191h-12.8c-3.539,0-6.403-2.863-6.403-6.403c0-3.535,2.864-6.398,6.403-6.398h12.8
			c3.536,0,6.399,2.863,6.399,6.398C271.756,908.328,268.893,911.191,265.357,911.191L265.357,911.191z M765.123,911.191H740.15
			c-3.55,0-6.398-2.863-6.398-6.403c0-3.535,2.848-6.398,6.398-6.398h24.973c3.551,0,6.402,2.863,6.402,6.398
			C771.525,908.328,768.674,911.191,765.123,911.191L765.123,911.191z M715.154,911.191h-24.988c-3.535,0-6.398-2.863-6.398-6.403
			c0-3.535,2.863-6.398,6.398-6.398h24.988c3.535,0,6.399,2.863,6.399,6.398C721.553,908.328,718.689,911.191,715.154,911.191
			L715.154,911.191z M665.182,911.191h-25c-3.524,0-6.399-2.863-6.399-6.403c0-3.535,2.875-6.398,6.399-6.398h25
			c3.523,0,6.398,2.863,6.398,6.398C671.58,908.328,668.705,911.191,665.182,911.191L665.182,911.191z M615.197,911.191h-24.988
			c-3.535,0-6.398-2.863-6.398-6.403c0-3.535,2.863-6.398,6.398-6.398h24.988c3.535,0,6.399,2.863,6.399,6.398
			C621.596,908.328,618.732,911.191,615.197,911.191L615.197,911.191z M565.217,911.191h-24.985c-3.539,0-6.398-2.863-6.398-6.403
			c0-3.535,2.859-6.398,6.398-6.398h24.985c3.547,0,6.394,2.863,6.394,6.398C571.611,908.328,568.764,911.191,565.217,911.191
			L565.217,911.191z M515.24,911.191h-24.988c-3.535,0-6.398-2.863-6.398-6.403c0-3.535,2.863-6.398,6.398-6.398h24.988
			c3.535,0,6.399,2.863,6.399,6.398C521.639,908.328,518.775,911.191,515.24,911.191L515.24,911.191z M465.26,911.191h-24.985
			c-3.539,0-6.398-2.863-6.398-6.403c0-3.535,2.859-6.398,6.398-6.398h24.985c3.539,0,6.402,2.863,6.402,6.398
			C471.662,908.328,468.799,911.191,465.26,911.191L465.26,911.191z M415.283,911.191h-24.984c-3.539,0-6.402-2.863-6.402-6.403
			c0-3.535,2.863-6.398,6.402-6.398h24.984c3.539,0,6.403,2.863,6.403,6.398C421.686,908.328,418.822,911.191,415.283,911.191
			L415.283,911.191z M365.303,911.191h-24.985c-3.535,0-6.398-2.863-6.398-6.403c0-3.535,2.863-6.398,6.398-6.398h24.985
			c3.539,0,6.398,2.863,6.398,6.398C371.701,908.328,368.842,911.191,365.303,911.191L365.303,911.191z M315.326,911.191h-24.984
			c-3.539,0-6.403-2.863-6.403-6.403c0-3.535,2.864-6.398,6.403-6.398h24.984c3.539,0,6.399,2.863,6.399,6.398
			C321.725,908.328,318.865,911.191,315.326,911.191L315.326,911.191z M802.924,911.191h-12.801c-3.535,0-6.398-2.863-6.398-6.403
			c0-3.535,2.863-6.398,6.398-6.398h12.801c3.535,0,6.398,2.863,6.398,6.398C809.322,908.328,806.459,911.191,802.924,911.191
			L802.924,911.191z M802.924,911.191"/>
		<path style="&st0;" d="M866.916,603.996c-3.535,0-6.398-2.864-6.398-6.399v-63.996c0-3.539,2.863-6.402,6.398-6.402
			c3.539,0,6.402,2.863,6.402,6.402v63.996C873.318,601.133,870.455,603.996,866.916,603.996L866.916,603.996z M866.916,603.996"/>
		<path style="&st0;" d="M866.916,885.578c-3.535,0-6.398-2.864-6.398-6.399v-76.797c0-3.535,2.863-6.398,6.398-6.398
			c3.539,0,6.402,2.863,6.402,6.398v76.797c0,1.695-0.675,3.324-1.875,4.527C870.244,884.906,868.615,885.578,866.916,885.578
			L866.916,885.578z M866.916,885.578"/>
		<path style="&st1;" d="M892.518,616.796H759.713c-9.012,0-20.137,5.211-25.91,12.133l-47.598,57.125
			c-6.523,7.813-6.523,20.063,0,27.871l47.598,57.121c5.773,6.926,16.898,12.137,25.91,12.137h132.805
			c10.586,0,19.195-8.609,19.195-19.199V635.992C911.713,625.406,903.104,616.796,892.518,616.796z M788.625,737.145
			c-21.608,0-39.125-17.517-39.125-39.125s17.517-39.125,39.125-39.125s39.125,17.517,39.125,39.125
			S810.233,737.145,788.625,737.145z"/>
	</g>
</g>
</svg>
