<?xml version="1.0" encoding="utf-8"?>
<!-- Generator: Adobe Illustrator 17.0.0, SVG Export Plug-In . SVG Version: 6.00 Build 0)  -->
<!DOCTYPE svg PUBLIC "-//W3C//DTD SVG 1.1//EN" "http://www.w3.org/Graphics/SVG/1.1/DTD/svg11.dtd" [
	<!ENTITY ns_flows "http://ns.adobe.com/Flows/1.0/">
	<!ENTITY ns_extend "http://ns.adobe.com/Extensibility/1.0/">
	<!ENTITY ns_ai "http://ns.adobe.com/AdobeIllustrator/10.0/">
	<!ENTITY ns_graphs "http://ns.adobe.com/Graphs/1.0/">
	<!ENTITY st0 "fill:#FFFFFF;">
	<!ENTITY st1 "fill:#D0E1F4;">
	<!ENTITY st2 "fill:#75848D;">
	<!ENTITY st3 "fill:none;stroke:#75848D;stroke-miterlimit:10;">
	<!ENTITY st4 "fill:#FFCDB1;">
	<!ENTITY st5 "fill:none;stroke:#75848D;stroke-width:2;stroke-miterlimit:10;">
	<!ENTITY st6 "fill:none;stroke:#FFCDB1;stroke-width:8;stroke-miterlimit:10;">
]>
<svg version="1.1" id="图层_1" xmlns:x="&ns_extend;" xmlns:i="&ns_ai;" xmlns:graph="&ns_graphs;"
	 xmlns="http://www.w3.org/2000/svg" xmlns:xlink="http://www.w3.org/1999/xlink" xmlns:a="http://ns.adobe.com/AdobeSVGViewerExtensions/3.0/"
	 x="0px" y="0px" width="220.489px" height="142.493px" viewBox="0 0 220.489 142.493"
	 style="enable-background:new 0 0 220.489 142.493;" xml:space="preserve">
<path style="&st5;" d="M39.409,33.911V15.957c0-1.28,2.378-1.045,3.659-1.045h132.909c1.28,0,1.432-0.235,1.432,1.045v9.955"/>
<path style="&st5;" d="M39.409,37.911V96.32c0,1.28,2.378,3.591,3.659,3.591h132.909c1.28,0,1.432-2.311,1.432-3.591V31.911"/>
<polyline style="&st5;" points="40.409,34.911 56.204,34.911 68.567,26.911 177.409,26.911 "/>
<line style="&st5;" x1="40.409" y1="34.911" x2="18.409" y2="34.911"/>
<line style="&st5;" x1="207.409" y1="33.911" x2="185.409" y2="33.911"/>
<g>
	<g>
		<line style="&st6;" x1="100.757" y1="50.252" x2="122.817" y2="72.312"/>
		<line style="&st6;" x1="122.817" y1="50.252" x2="100.757" y2="72.312"/>
	</g>
</g>
<line style="&st5;" x1="46.409" y1="115.911" x2="98.409" y2="115.911"/>
<line style="&st5;" x1="134.409" y1="115.911" x2="187.409" y2="115.911"/>
<line style="&st5;" x1="88.409" y1="131.911" x2="109.409" y2="131.911"/>
<line style="&st5;" x1="186.409" y1="102.911" x2="207.409" y2="102.911"/>
<line style="&st5;" x1="8.409" y1="107.911" x2="29.409" y2="107.911"/>
<line style="&st5;" x1="8.409" y1="127.911" x2="66.409" y2="127.911"/>
<line style="&st5;" x1="179.409" y1="127.911" x2="208.409" y2="127.911"/>
</svg>
