<?xml version="1.0" encoding="utf-8"?>
<!-- Generator: Adobe Illustrator 17.0.0, SVG Export Plug-In . SVG Version: 6.00 Build 0)  -->
<!DOCTYPE svg PUBLIC "-//W3C//DTD SVG 1.1//EN" "http://www.w3.org/Graphics/SVG/1.1/DTD/svg11.dtd" [
	<!ENTITY st0 "opacity:0.3;fill:#75848D;">
	<!ENTITY st1 "fill:#FFCDB1;">
	<!ENTITY st2 "fill:#75848D;">
]>
<svg version="1.1" id="图层_1" xmlns="http://www.w3.org/2000/svg" xmlns:xlink="http://www.w3.org/1999/xlink" x="0px" y="0px"
	 width="200px" height="200px" viewBox="0 0 200 200" style="enable-background:new 0 0 200 200;" xml:space="preserve">
<path style="&st0;" d="M122.023,187.754H76.397c-0.713,0-1.291-0.578-1.291-1.291c0-0.713,0.579-1.29,1.291-1.29h45.626
	c0.713,0,1.291,0.577,1.291,1.29C123.314,187.176,122.736,187.754,122.023,187.754L122.023,187.754z"/>
<path style="&st1;" d="M117.512,29.932c-1.467,0-2.794-1.006-3.14-2.496l-2.562-11c-0.404-1.736,0.675-3.471,2.411-3.875
	c1.736-0.404,3.471,0.675,3.875,2.411l2.562,11.001c0.404,1.736-0.675,3.471-2.411,3.875
	C118.006,29.904,117.759,29.932,117.512,29.932z"/>
<path style="&st1;" d="M153.432,58.302c-0.212,0-0.427-0.02-0.643-0.064l-11.071-2.236c-1.747-0.353-2.877-2.055-2.525-3.802
	c0.354-1.747,2.056-2.877,3.803-2.524l11.072,2.236c1.746,0.353,2.877,2.056,2.524,3.802
	C156.281,57.245,154.936,58.302,153.432,58.302L153.432,58.302z"/>
<path style="&st1;" d="M135.783,36.115c-0.929,0-1.852-0.399-2.49-1.171c-1.135-1.374-0.941-3.409,0.433-4.544l9.494-7.844
	c1.374-1.136,3.408-0.942,4.544,0.432c1.136,1.374,0.941,3.408-0.432,4.544l-9.494,7.843
	C137.259,35.855,136.533,36.116,135.783,36.115z"/>
<path style="&st2;" d="M166.957,178.675H90.843l53.352-19.338c3.305-1.198,5.946-3.611,7.437-6.795
	c1.49-3.185,1.65-6.759,0.453-10.064l-3.459-9.541c-0.425-1.173-1.721-1.779-2.893-1.354c-1.173,0.425-1.779,1.721-1.354,2.893
	l3.458,9.541c0.787,2.171,0.681,4.518-0.297,6.61c-0.979,2.091-2.713,3.676-4.884,4.463l-60.04,21.763
	c-2.172,0.786-4.519,0.681-6.61-0.297c-2.091-0.979-3.676-2.713-4.463-4.884L38.368,80.145c-1.624-4.48,0.7-9.448,5.182-11.072
	l60.04-21.763c2.171-0.787,4.518-0.68,6.61,0.298c2.091,0.979,3.676,2.713,4.462,4.881l13.551,37.518
	c0.424,1.174,1.718,1.781,2.893,1.357c1.173-0.424,1.78-1.718,1.356-2.891l-13.552-37.521c-1.198-3.305-3.611-5.946-6.795-7.437
	c-3.185-1.49-6.759-1.65-10.064-0.453L42.009,64.824c-6.824,2.474-10.362,10.037-7.889,16.86l33.174,91.525
	c1.614,4.452,5.393,7.503,9.72,8.402c0.258,0.168,0.559,0.258,0.867,0.257h1.131c0.223,0.011,0.445,0.02,0.669,0.02
	c0.223,0,0.447-0.008,0.671-0.02h86.604c0.882,0,1.597-0.715,1.597-1.597S167.839,178.675,166.957,178.675L166.957,178.675z"/>
<path style="&st1;" d="M151.284,82.022l-3.509-1.905c-1.401-0.759-3.408,0.229-4.483,2.21l-29.204,53.828
	c-0.13,0.24-0.197,0.504-0.188,0.747l0.191,5.955c-0.091,0.006-0.182,0.024-0.271,0.059l-9.072,3.381
	c-0.501,0.187-0.756,0.744-0.569,1.245c0.187,0.501,0.744,0.756,1.245,0.569l8.732-3.254l0.002,0.07
	c0.021,0.657,0.561,0.95,1.123,0.609l6.868-4.158c0.208-0.126,0.393-0.325,0.523-0.565l29.204-53.828
	C152.95,85.004,152.686,82.782,151.284,82.022L151.284,82.022z"/>
<path style="&st0;" d="M85.999,153.286l-6.658,2.481c-0.501,0.186-0.756,0.744-0.569,1.244c0,0,0,0.001,0,0.001
	c0.187,0.501,0.744,0.756,1.245,0.569l6.658-2.481c0.501-0.187,0.756-0.744,0.569-1.245c0,0,0,0,0,0
	c-0.186-0.501-0.742-0.756-1.243-0.57C86.001,153.285,86,153.285,85.999,153.286L85.999,153.286z"/>
<path style="&st0;" d="M99.909,148.1l-9.072,3.382c-0.501,0.186-0.756,0.744-0.569,1.245c0,0,0,0,0,0.001
	c0.187,0.501,0.744,0.756,1.245,0.569l9.072-3.381c0.501-0.186,0.756-0.743,0.57-1.244c0-0.001,0-0.001-0.001-0.002
	c-0.186-0.501-0.743-0.756-1.244-0.57C99.91,148.099,99.909,148.1,99.909,148.1L99.909,148.1z"/>
<path style="&st2;" d="M73.207,133.136c-0.405,0-0.767-0.251-0.908-0.63c-0.186-0.501,0.068-1.058,0.569-1.245l5.693-2.122
	c0.503-0.18,1.058,0.082,1.238,0.585c0.177,0.494-0.072,1.039-0.562,1.229l-5.693,2.122
	C73.437,133.115,73.323,133.136,73.207,133.136z"/>
<path style="&st0;" d="M83.738,129.21c-0.393,0-0.762-0.241-0.907-0.631c-0.187-0.501,0.068-1.058,0.569-1.245c0,0,0,0,0,0
	l9.072-3.382c0.501-0.187,1.058,0.068,1.245,0.569c0,0,0,0,0,0c0.187,0.5-0.067,1.058-0.567,1.245c-0.001,0-0.001,0-0.002,0.001
	l-9.072,3.382C83.968,129.189,83.853,129.21,83.738,129.21L83.738,129.21z"/>
<path style="&st0;" d="M97.648,124.025c-0.404,0-0.766-0.252-0.907-0.63c-0.187-0.5,0.067-1.058,0.568-1.245
	c0,0,0.001,0,0.001-0.001l9.072-3.383c0.501-0.187,1.058,0.068,1.245,0.569c0,0,0,0,0,0c0.187,0.5-0.067,1.058-0.568,1.245
	c0,0-0.001,0-0.001,0.001l-9.072,3.382C97.878,124.004,97.763,124.025,97.648,124.025L97.648,124.025z"/>
<path style="&st0;" d="M111.558,118.839c-0.535,0-0.968-0.433-0.969-0.968c0-0.405,0.251-0.767,0.631-0.908l9.072-3.381
	c0.501-0.187,1.058,0.068,1.245,0.568c0,0,0,0,0,0.001c0.187,0.501-0.068,1.058-0.568,1.245c0,0-0.001,0-0.001,0l-9.072,3.382
	C111.788,118.819,111.674,118.839,111.558,118.839L111.558,118.839z"/>
</svg>
