<?xml version="1.0" encoding="utf-8"?>
<!-- Generator: Adobe Illustrator 17.0.0, SVG Export Plug-In . SVG Version: 6.00 Build 0)  -->
<!DOCTYPE svg PUBLIC "-//W3C//DTD SVG 1.1//EN" "http://www.w3.org/Graphics/SVG/1.1/DTD/svg11.dtd" [
	<!ENTITY ns_flows "http://ns.adobe.com/Flows/1.0/">
	<!ENTITY ns_extend "http://ns.adobe.com/Extensibility/1.0/">
	<!ENTITY ns_ai "http://ns.adobe.com/AdobeIllustrator/10.0/">
	<!ENTITY ns_graphs "http://ns.adobe.com/Graphs/1.0/">
	<!ENTITY st0 "fill:#FFFFFF;">
	<!ENTITY st1 "fill:#D0E1F4;">
	<!ENTITY st2 "fill:#75848D;">
	<!ENTITY st3 "fill:none;stroke:#75848D;stroke-miterlimit:10;">
	<!ENTITY st4 "fill:#FFCDB1;">
	<!ENTITY st5 "fill:none;stroke:#75848D;stroke-width:2;stroke-miterlimit:10;">
	<!ENTITY st6 "fill:none;stroke:#FFCDB1;stroke-width:8;stroke-miterlimit:10;">
]>
<svg version="1.1" id="图层_1" xmlns:x="&ns_extend;" xmlns:i="&ns_ai;" xmlns:graph="&ns_graphs;"
	 xmlns="http://www.w3.org/2000/svg" xmlns:xlink="http://www.w3.org/1999/xlink" xmlns:a="http://ns.adobe.com/AdobeSVGViewerExtensions/3.0/"
	 x="0px" y="0px" width="220.489px" height="142.493px" viewBox="0 0 220.489 142.493"
	 style="enable-background:new 0 0 220.489 142.493;" xml:space="preserve">
<path style="&st0;" d="M108.55,45.905c3.419,0.281,6.839,0.563,10.258,0.844C115.308,47.523,111.899,47.053,108.55,45.905z"/>
<path style="&st0;" d="M118.93,44.17c1.696-0.082,3.391-0.164,5.087-0.246c0.047,0.092,0.094,0.184,0.142,0.275
	c-0.202,0.154-0.41,0.448-0.606,0.44c-1.541-0.062-3.081-0.181-4.62-0.283C118.931,44.295,118.931,44.233,118.93,44.17z"/>
<path style="&st1;" d="M124.192,54.57c4.354,1.985,8.503,4.272,11.721,7.943c-0.053,0.067-0.105,0.134-0.158,0.201
	c-1.139-1.033-2.219-2.143-3.434-3.077c-1.278-0.982-2.654-1.849-4.045-2.668c-1.356-0.798-2.786-1.472-4.183-2.201
	C124.126,54.703,124.159,54.637,124.192,54.57z"/>
<path style="&st1;" d="M94.431,51.227c2.517-1.558,5.305-2.171,8.266-2.177c-1.4,0.29-2.828,0.489-4.194,0.895
	c-1.363,0.405-2.664,1.016-3.993,1.537C94.484,51.397,94.457,51.312,94.431,51.227z"/>
<g>
	<path style="&st2;" d="M119.118,125.277c0.018-0.003,0.035-0.007,0.052-0.01c-0.015-0.002-0.029-0.004-0.044-0.006L119.118,125.277
		z"/>
	<path style="&st2;" d="M118.735,139.197c0.019,0.038,0.041,0.08,0.061,0.12c0.086-0.013,0.17-0.025,0.258-0.039
		C118.949,139.251,118.84,139.223,118.735,139.197z"/>
	<path style="&st2;" d="M126.17,137.593c0.496-0.963-0.451-1.217-0.683-1.82c-0.301-0.784-1.484-0.692-2.803-0.574
		c-0.864,0.077-1.78,0.116-2.316-0.094c-0.525-0.205-1.044-0.186-2.076,0.268c0.997-0.997,2.975-1.464,3.429-2.549
		c0.393-0.94-0.033-1.407-1.375-1.439c-0.936,0.483-1.104,0.267-1.089-0.345c0.019-0.771-0.374-1.383-0.588-2.061
		c1.887-1.234,2.206-1.679,2.001-2.772c-0.12-0.638,1.043-1.78,2.715-2.627c0.769-0.39,1.513-0.725,0.95-1.076
		c-0.077-0.048-0.042-0.209,0.051-0.326c1.106-1.399,2.298-2.818,4.55-3.982c1.203-0.622,2.494-1.075,3.715-1.676
		c0.656-0.323,1.254-0.794,1.868-1.205c0.639-0.428,1.23-0.942,1.905-1.28c1.789-0.895,3.613-1.716,5.422-2.567
		c0.895-0.421,1.804-0.818,2.676-1.277c0.357-0.188,0.633-0.512,1.058-0.867c1.751-0.472,4.012-1.061,6.297-1.717
		c0.391-0.112,0.866-0.532,1.324-0.771c0.546-0.285,1.116-0.528,1.676-0.79c0.072,0.266,0.183,0.516,0.197,0.806
		c0.004,0.089-0.126,0.232-0.161,0.259c0.637,0.382,1.086,0.753,1.715,0.989c0.411,0.155,1.078,0.119,1.644,0.156
		c0.116,0.008,0.312-0.065,0.433-0.061c0.988,0.033,0.985,0.036,1.941-0.449c0.684,0.078,1.313,0.14,1.911,0.22
		c0.13-0.257,0.254-0.512,0.367-0.764c-0.192-0.025-0.384-0.051-0.583-0.076c0.285-0.21,0.585-0.433,0.89-0.658
		c0.028-0.071,0.056-0.141,0.082-0.211c-2.675,1.236-5.079,1.855-4.941,1.203c-0.29,0.084-0.823,0.26-0.821,0.234
		c0.04-0.755-1.043-0.762-1.853-0.992c0.613-0.515,1.113-0.936,1.637-1.376c-0.444-0.649-0.368-0.741,1.755-2.045
		c-1.068,0.168-1.603,0.704-2.146,1.337c-0.302,0.352-0.817,0.712-1.413,1.219c-0.209-0.709-0.942-0.593-2.06,0.047
		c-0.281,0.161-0.614,0.31-0.83,0.488c-1.185,0.976-2.361,1.105-3.731,1.532c1.637-1.041,2.024-1.611,1.568-2.15
		c-0.132,0.261-0.681,0.559-1.6,1.346c-1.39,1.19-2.66,0.855-3.949,1.609c-0.133-0.36-0.664-0.189-1.2,0.199
		c-0.478,0.345-1.187,0.876-1.189,1.089c-0.006,0.638-0.816,0.867-1.473,1.117c-0.901,0.343-1.843,0.427-2.618,1.226
		c-0.062,0.064-0.384,0.118-0.585,0.176c-0.717,0.208-1.434,0.416-2.152,0.623c-0.035,0.082-0.07,0.164-0.105,0.247
		c-0.223-0.035-0.445-0.071-0.639-0.101c-0.636,0.636,1.537,0.094,0.015,1.105c-0.554,0.007-1.109,0.015-1.685,0.022
		c0.128,0.328,0.307,0.579,0.309,0.902c0,0.121-0.4,0.497-0.64,0.601c-1.07,0.463-2.15,0.857-3.224,1.298
		c-2.195,0.899-3.819,2.09-5.084,3.511c-0.355,0.399-0.986,0.803-1.491,1.205c-0.137,0.008-0.275,0.015-0.412,0.023
		c0.132,0.429,0.263,0.859,0.405,1.319c-1.287,0.63-2.429,1.74-3.986,1.996c0.319,0.044,0.639,0.088,0.999,0.137
		c-0.247,1.707-1.75,3.217-3.904,3.881c-2.48,0.764-3.35,0.695-3.13-0.056c-0.712,0.114-1.343,0.215-1.863,0.298
		c0.421,0.149,0.965,0.341,1.509,0.534c-0.087,0.092,0.052,0.183-0.035,0.275c-1.324,0.458-2.746,0.916-3.746,1.375
		c0,0.064,0,0.127,0,0.191c1-0.411,2.066-0.823,3.211-1.231c0.081-0.029,0.043-0.023,0.124-0.047
		c1.095-0.322,2.14-0.659,3.229-0.964c0.633-0.177,1.545-0.531,1.784-0.411c0.936,0.467,1.303,1.243,0.697,2.452l-0.01,0.003
		c0.03-0.027,0.053-0.058,0.089-0.081c0.031-0.02,0.072-0.031,0.11-0.046c-0.1,0.228-0.084,0.491-0.322,0.679
		c-0.703,0.556-1.506,1.083-2.27,1.621c0.544-0.222,1.016-0.494,1.418-0.793c0.97-0.722,1.846-1.021,2.765-1.023
		c1.046-0.002,1.47,0.33,0.655,1.224c-0.395,0.433-1.168,0.859-1.725,1.302c-1.387,1.1-2.764,1.582-4.193,1.7
		c-0.154,0.013-0.467,0.23-0.967,0.484c0.924-0.161,1.56-0.247,2.227-0.395c0.824-0.182,0.671,0.145,0.325,0.537
		c-0.207,0.236-0.576,0.475-0.668,0.549c0.161,0.316,0.296,0.58,0.431,0.844c0.229-0.296,0.378-0.596,0.261-0.749
		c-0.296-0.389,0.365-0.83,0.983-1.24c0.741-0.491,1.636-0.967,2.179-0.744c1.134,0.467,2.421,0.743,4.505,0.247
		c0.257-0.061,0.594-0.064,0.653,0.034c0.356,0.58,0.641,1.198,1.013,1.928c-1.173,0.284-2.203,0.534-3.217,0.78
		c-0.069,0.052-0.139,0.105-0.208,0.157c1.326-0.282,2.719-0.63,4.142-1.058C126.181,137.643,126.155,137.622,126.17,137.593z"/>
	<path style="&st2;" d="M127.341,137.181c-0.112,0.065-0.289,0.168-0.495,0.288c0.378-0.119,0.757-0.245,1.137-0.376
		C127.77,137.126,127.553,137.158,127.341,137.181z"/>
	<path style="&st2;" d="M154.912,107.111c-0.002-0.001-0.003-0.002-0.005-0.003C154.899,107.12,154.903,107.118,154.912,107.111z"/>
</g>
<path style="&st3;" d="M51.667,44.826c0,0-14.333,12.777-12.667,26.888"/>
<path style="&st3;" d="M184.185,74.88c0,0-3.104-18.949-15.91-25.106"/>
<g>
	<g>
		<path style="&st2;" d="M69.183,13.493c0.088,0.746,0.188,1.609,0.852,2.105c0.427,0.319,0.689,0.555,1.213,0.724
			c0.265,0.085,2.848,0.54,2.394,1.028c-0.978,1.052-1.361,2.275-0.141,3.221c0.736,0.571,1.751,0.848,2.588,1.234
			c2.86,1.32,1.488,3.445-0.387,4.726c-1.432,0.978-1.077,2.118-0.165,3.371c0.113,0.155,0.373,0.005,0.259-0.151
			c-2.541-3.494,3.411-3.26,2.348-6.298c-1.034-2.956-7.585-2.347-3.705-6.521c0.069-0.074,0.052-0.233-0.066-0.251
			c-2.051-0.298-4.567-0.443-4.89-3.189C69.461,13.303,69.161,13.301,69.183,13.493L69.183,13.493z"/>
	</g>
</g>
<g>
	<g>
		<path style="&st2;" d="M145.96,8.971c2.838,0.686,3.96,4.248,1.298,5.726c-0.108,0.06-0.085,0.194,0,0.259
			c2.732,2.086,0.296,3.475,0.931,5.577c0.492,1.63,3.336,3.369,0.402,5.164c-0.165,0.101-0.014,0.36,0.151,0.259
			c0.72-0.441,2.696-1.48,1.781-2.667c-1.201-1.558-2.116-2.808-1.746-5.076c0.1-0.616,0.228-1.712-0.173-2.295
			c-1.246-1.813,1.351-1.992,1.153-3.854c-0.222-2.086-1.82-2.923-3.717-3.381C145.852,8.636,145.772,8.925,145.96,8.971
			L145.96,8.971z"/>
	</g>
</g>
<path style="&st4;" d="M106.286,94.105c0-1.508,0.169-2.772-0.065-3.958c-0.135-0.683-0.826-1.36-1.431-1.826
	c-1.143-0.879-2.495-1.495-3.599-2.414c-2.743-2.285-3.164-5.705-1.197-8.685c1.328-2.013,3.184-3.365,5.427-4.153
	c0.723-0.254,0.935-0.592,0.948-1.317c0.014-0.736,0.176-1.482,0.364-2.2c0.484-1.848,1.722-2.646,3.731-2.469
	c1.404,0.123,2.838,1.468,2.741,3.038c-0.126,2.044,0.578,3.134,2.578,3.61c0.848,0.202,1.629,0.806,2.365,1.333
	c1.456,1.043,1.898,2.208,1.39,3.369c-0.617,1.409-2.212,2.284-3.774,2.022c-0.772-0.129-1.53-0.338-2.445-0.546
	c0,1.377-0.149,2.71,0.067,3.98c0.099,0.584,0.838,1.17,1.424,1.536c1.044,0.652,2.256,1.041,3.286,1.711
	c5.069,3.295,3.682,9.469,0.522,11.886c-1.293,0.989-2.829,1.685-4.318,2.38c-0.727,0.339-1.096,0.645-1.078,1.512
	c0.035,1.702-0.375,3.188-2.244,3.871c-2.487,0.909-4.508-0.06-4.66-2.687c-0.113-1.947-1.017-2.738-2.581-3.534
	c-1.407-0.717-2.632-1.853-3.809-2.942c-1.088-1.007-1.062-2.388-0.656-3.71c0.415-1.352,1.605-1.806,2.828-1.84
	c0.769-0.021,1.585,0.373,2.317,0.715C105.004,93.059,105.497,93.535,106.286,94.105z M113.325,94.926
	c1.341-0.723,1.342-1.274,0-2.204C113.325,93.478,113.325,94.184,113.325,94.926z"/>
<path style="&st3;" d="M126.17,137.593c0,0-0.901-4.85,1.183-9.1c2.084-4.25,4.991,0,4.991,0s3.466-0.463,3.553-3.232
	c0.087-2.768,0.008-3.768,0.008-3.768l7.216-1.125c0,0,1.379-1.375,1.379-3s0-2.375,0-2.375h4.5c0,0,4.375-2.375,5.125-3.125
	s3.375-2.125,3.375-2.125l4.84-2.553"/>
<path style="&st2;" d="M126.5,137.153c-2.781,0.711-5.596,1.228-8.445,1.541c-17.885,0.953-36.295-6.45-41.5-9.453
	c-6.09-4.063-11.152-9.22-15.042-15.633c-5.066-8.352-6.668-17.416-5.585-27.034c0.719-6.389,2.516-12.436,5.82-17.986
	c5.422-9.108,13.251-15.166,23.304-18.451c5.557-1.816,11.256-2.764,17.074-3.09c0.468-0.026,0.976,0.053,1.415,0.217
	c6.932,2.595,13.877,2.819,20.862,0.206c0.332-0.124,0.794-0.109,1.131,0.015c12.025,4.427,22.217,11.442,30.109,21.607
	c3.873,4.989,6.929,10.425,8.213,16.707c1.632,7.986,0.672,15.697-2.55,23.116l1.619-1.712c0,0,0.335,0.072,0.836,0.181
	c1.57-4.053,2.483-8.339,2.649-12.884c0.318-8.693-2.373-16.466-7.276-23.556c-6.587-9.525-15.326-16.5-25.623-21.616
	c-1.981-0.985-4.031-1.831-6.052-2.743c0.639-0.933,0.476-1.343-0.607-1.543c-0.375-0.069-0.752-0.128-1.091-0.185
	c-0.092-0.846,0.309-1.063,0.928-0.917c0.707,0.167,1.433,0.33,2.085,0.635c1.324,0.619,2.578,1.389,3.91,1.991
	c1.08,0.488,2.243,0.588,3.389,0.144c0.603-0.233,1.274-0.479,1.22-1.282c-0.057-0.853-0.776-1.092-1.459-1.297
	c-0.199-0.059-0.434-0.073-0.636-0.032c-0.946,0.192-1.721-0.166-2.486-0.666c-1.86-1.216-3.666-2.576-6.067-2.458
	c0-0.189-0.017-0.284,0.003-0.369c0.071-0.297,0.148-0.592,0.236-0.885c2.243-7.495,5.782-14.382,9.997-20.924
	c1.928-2.993,4.136-5.805,6.203-8.71c0.632-0.888,0.333-1.832-0.69-2.227c-0.308-0.119-0.652-0.193-0.982-0.2
	c-1.736-0.039-3.473-0.065-5.209-0.066c-4.808-0.005-9.49-0.588-13.925-2.637c-2.119-0.979-4.382-1.506-6.762-1.391
	c-2.725,0.132-5.244,1.048-7.8,1.886c-2.747,0.9-5.511,1.804-8.333,2.405c-3.516,0.749-7.097,1.191-10.651,1.758
	c-0.207,0.033-0.428,0.011-0.639-0.014c-2.251-0.266-4.129,0.531-5.791,1.989c-0.524,0.46-0.613,0.818-0.116,1.428
	c4.736,5.804,9.094,11.881,13.02,18.263c2.08,3.38,4.137,6.775,5.435,10.562c0.186,0.542,0.168,0.849-0.363,1.204
	c-0.996,0.667-1.029,1.268-0.293,2.266c0.138,0.187,0.252,0.392,0.411,0.642c-0.397,0.05-0.757,0.104-1.118,0.138
	c-6.362,0.6-12.542,1.974-18.438,4.471c-12.126,5.135-20.465,13.825-24.564,26.418c-2.724,8.371-3.326,16.873-1.202,25.473
	c2.673,10.822,8.748,19.388,17.626,25.987c0.896,0.666,1.829,1.283,2.779,1.878c19.107,11.317,42.796,9.578,42.796,9.578
	c2.771-0.352,5.511-0.9,8.225-1.612V137.153z M108.55,45.905c3.419,0.281,6.839,0.563,10.258,0.844
	C115.308,47.523,111.899,47.053,108.55,45.905z M123.552,44.64c-1.541-0.062-3.081-0.181-4.62-0.283
	c-0.001-0.062-0.001-0.125-0.002-0.187c1.696-0.082,3.391-0.164,5.087-0.246c0.047,0.092,0.094,0.184,0.142,0.275
	C123.956,44.354,123.748,44.648,123.552,44.64z M97.203,8.815c3.773-0.519,7.409-1.475,10.93-2.94
	c1.427-0.594,2.951-0.987,4.462-1.335c2.595-0.597,5.087-0.044,7.532,0.868c2.058,0.767,4.083,1.786,6.215,2.152
	c3.083,0.53,6.249,0.576,9.381,0.815c0.502,0.038,1.01,0.005,1.515,0.005c0.02,0.124,0.04,0.248,0.059,0.372
	c-4.087,1.268-8.157,2.597-12.27,3.776c-1.999,0.573-3.947-0.005-5.755-0.93c-1.359-0.695-2.665-1.491-4.004-2.226
	c-6.829-3.75-15.027-2.045-19.814,4.114c-0.091,0.117-0.194,0.226-0.226,0.264c-1.575-1.273-3.123-2.524-4.711-3.806
	C92.703,9.572,94.944,9.126,97.203,8.815z M98.376,33.258c-3.964-7.152-8.79-13.724-13.854-20.125
	c-0.94-1.188-0.828-1.559,0.591-2.018c3.222-1.042,5.496,0.479,7.622,2.654c2.206,2.258,3.16,5.153,4.321,7.955
	c1.354,3.27,2.701,6.543,4.094,9.918c0.379-0.107,0.732-0.206,1.176-0.331c-1.041-2.525-2.04-4.943-3.034-7.364
	c-1.055-2.569-2.12-5.134-3.138-7.718c-0.121-0.308-0.097-0.796,0.068-1.077c2.484-4.23,8.352-8.402,15.072-5.702
	c1.606,0.645,3.19,1.414,4.652,2.336c2.766,1.744,5.705,2.408,8.922,1.927c0.208-0.031,0.42-0.035,0.927-0.074
	c-1.364,3.138-2.661,6.096-3.926,9.068c-0.151,0.354-0.243,1.094-0.151,1.131c0.622,0.251,1.025-0.126,1.272-0.689
	c1.041-2.375,2.214-4.703,3.076-7.142c0.671-1.897,1.628-3.014,3.699-3.544c3.121-0.799,6.127-2.048,9.188-3.089
	c0.489-0.166,1.003-0.276,1.514-0.351c0.248-0.036,0.675-0.01,0.74,0.124c0.11,0.226,0.088,0.613-0.041,0.84
	c-0.437,0.767-0.879,1.548-1.438,2.225c-3.937,4.77-6.79,10.202-9.629,15.644c-2.095,4.016-3.822,8.182-5.132,12.521
	c-0.077,0.255-0.445,0.582-0.697,0.6c-7.069,0.499-14.141,0.963-21.213,1.431c-0.089,0.006-0.18-0.017-0.068-0.005
	C101.422,39.282,100.011,36.208,98.376,33.258z"/>
</svg>
